<svg id="Layer_1" data-name="Layer 1" xmlns="http://www.w3.org/2000/svg" xmlns:xlink="http://www.w3.org/1999/xlink" viewBox="0 0 219.32 215.98"><defs><style>.cls-1,.cls-2,.cls-3,.cls-4,.cls-6{stroke:#26283d;}.cls-1,.cls-2,.cls-3,.cls-6{stroke-width:7px;}.cls-1{fill:url(#linear-gradient);}.cls-2{fill:url(#linear-gradient-2);}.cls-3{fill:url(#linear-gradient-3);}.cls-4{fill:#26283d;stroke-width:3px;}.cls-5{fill:#a5a381;}.cls-6{fill:url(#linear-gradient-4);}</style><linearGradient id="linear-gradient" x1="26.32" y1="221.99" x2="183.62" y2="-0.82" gradientUnits="userSpaceOnUse"><stop offset="0" stop-color="#bab4d8"/><stop offset="0.93" stop-color="#484152"/></linearGradient><linearGradient id="linear-gradient-2" x1="104.97" y1="40.39" x2="104.97" y2="77.41" gradientUnits="userSpaceOnUse"><stop offset="0" stop-color="#fff"/><stop offset="1" stop-color="#bdb6d9"/></linearGradient><linearGradient id="linear-gradient-3" x1="136.52" y1="155.14" x2="136.52" y2="192.16" xlink:href="#linear-gradient-2"/><linearGradient id="linear-gradient-4" x1="81.59" y1="96.29" x2="81.59" y2="136.26" xlink:href="#linear-gradient-2"/></defs><title>magigui_logo</title><rect class="cls-1" x="3.5" y="11.6" width="200.88" height="200.88" rx="13.69"/><rect class="cls-2" x="31.87" y="40.39" width="146.2" height="37.02" rx="5.76"/><rect class="cls-3" x="94.96" y="155.14" width="83.11" height="37.02" rx="5.76"/><rect class="cls-4" x="31.1" y="110.52" width="147.75" height="11.52" rx="5.76"/><path class="cls-5" d="M228.9,59.18c-41.2,4.64-45,8.41-49.61,49.6-4.65-41.19-8.41-45-49.61-49.6,41.2-4.65,45-8.42,49.61-49.61C183.94,50.76,187.7,54.53,228.9,59.18Z" transform="translate(-9.58 -2.59)"/><path class="cls-5" d="M161.55,86c-17,1.92-18.54,3.47-20.46,20.46-1.91-17-3.47-18.54-20.45-20.46,17-1.91,18.54-3.47,20.45-20.45C143,82.53,144.56,84.09,161.55,86Z" transform="translate(-9.58 -2.59)"/><path class="cls-5" d="M173.72,18.73c-13.4,1.51-14.63,2.73-16.14,16.13-1.51-13.4-2.74-14.62-16.14-16.13,13.4-1.51,14.63-2.74,16.14-16.14C159.09,16,160.32,17.22,173.72,18.73Z" transform="translate(-9.58 -2.59)"/><path class="cls-5" d="M150,39.94c-27.69,3.13-30.23,5.66-33.35,33.35C113.56,45.6,111,43.07,83.34,39.94,111,36.82,113.56,34.29,116.68,6.6,119.8,34.29,122.34,36.82,150,39.94Z" transform="translate(-9.58 -2.59)"/><circle class="cls-6" cx="81.59" cy="116.28" r="19.99"/></svg>
